<svg xmlns="http://www.w3.org/2000/svg" width="1300" height="220" viewBox="0 0 1300 220" fill="none">
    <defs>
      <style>
        @import url('https://fonts.googleapis.com/css2?family=Cinzel:wght@700;800&amp;family=Montserrat:wght@600;700&amp;display=swap');
        .title-dark { font-family: 'Cinzel', 'Liberation Serif', 'Times New Roman', serif; font-size: 76px; font-weight: 800; fill: #ffffff; letter-spacing: 0.16em; }
        .subtitle-dark { font-family: 'Montserrat', 'Liberation Sans', sans-serif; font-size: 22px; font-weight: 700; fill: #f2ca50; letter-spacing: 0.22em; }
      </style>
      <linearGradient id="goldLineGrad" x1="0%" y1="0%" x2="100%" y2="0%">
        <stop offset="0%" stop-color="#ffe699" stop-opacity="0.9" />
        <stop offset="35%" stop-color="#f2ca50" stop-opacity="1" />
        <stop offset="70%" stop-color="#d4af37" stop-opacity="0.9" />
        <stop offset="100%" stop-color="#8c6c21" stop-opacity="0" />
      </linearGradient>
    </defs>
    <!-- 100% Transparent Background - No bounding rectangle or border box -->
    <g transform="translate(15, 20) scale(1.1)">
      
  <g id="wing-crest">
    <!-- Center vertex -->
    <circle cx="100" cy="155" r="4" fill="#f2ca50" />
    <!-- Main stem curves -->
    <path d="M100 155 C94 125 70 70 30 25" stroke="#f2ca50" stroke-width="3.5" stroke-linecap="round" fill="none" />
    <path d="M100 155 C106 125 130 70 170 25" stroke="#f2ca50" stroke-width="3.5" stroke-linecap="round" fill="none" />
    <!-- Outer primary feather -->
    <path d="M80 120 C64 90 44 55 38 42" stroke="#e0ba55" stroke-width="3" stroke-linecap="round" fill="none" />
    <path d="M120 120 C136 90 156 55 162 42" stroke="#e0ba55" stroke-width="3" stroke-linecap="round" fill="none" />
    <!-- Intermediate feather accents -->
    <path d="M88 135 C66 105 54 80 50 70" stroke="#f2ca50" stroke-width="2.6" stroke-linecap="round" fill="none" />
    <path d="M112 135 C134 105 146 80 150 70" stroke="#f2ca50" stroke-width="2.6" stroke-linecap="round" fill="none" />
    <path d="M72 105 C60 90 52 75 48 68" stroke="#cca138" stroke-width="2.4" stroke-linecap="round" fill="none" />
    <path d="M128 105 C140 90 148 75 152 68" stroke="#cca138" stroke-width="2.4" stroke-linecap="round" fill="none" />
    <!-- Upper delicate tips -->
    <path d="M60 80 C50 62 44 48 38 38" stroke="#f2ca50" stroke-width="2" stroke-linecap="round" fill="none" />
    <path d="M140 80 C150 62 156 48 162 38" stroke="#f2ca50" stroke-width="2" stroke-linecap="round" fill="none" />
  </g>

    </g>
    <g transform="translate(235, 0)">
      <text x="0" y="112" class="title-dark">ZEENAT KURESHI</text>
      <line x1="0" y1="134" x2="1000" y2="134" stroke="url(#goldLineGrad)" stroke-width="2.5" stroke-linecap="round" />
      <text x="4" y="172" class="subtitle-dark">FILM PRODUCER  •  TRADE COMMISSIONER  •  NATIONAL PRESIDENT</text>
    </g>
  </svg>